<!-- Source icon: Lucide scan-face (ISC) -->
<svg width="128" height="128" viewBox="0 0 128 128" fill="none" xmlns="http://www.w3.org/2000/svg">
  <circle cx="64" cy="64" r="60" fill="url(#bg)"/>
  <circle cx="64" cy="64" r="44" fill="white" fill-opacity="0.96"/>
  <g transform="translate(30 30) scale(2.8)" stroke="#4F5FEF" stroke-width="1.85" stroke-linecap="round" stroke-linejoin="round">
    <path d="M3 7V5a2 2 0 0 1 2-2h2" />
    <path d="M17 3h2a2 2 0 0 1 2 2v2" />
    <path d="M21 17v2a2 2 0 0 1-2 2h-2" />
    <path d="M7 21H5a2 2 0 0 1-2-2v-2" />
    <path d="M8 14s1.5 2 4 2 4-2 4-2" />
    <path d="M9 9h.01" />
    <path d="M15 9h.01" />
  </g>
  <defs>
    <linearGradient id="bg" x1="12" y1="10" x2="116" y2="116" gradientUnits="userSpaceOnUse">
      <stop stop-color="#E8FFF8"/>
      <stop offset="1" stop-color="#E6EEFF"/>
    </linearGradient>
  </defs>
</svg>
