<!-- Source icon: Lucide stethoscope (ISC) -->
<svg width="128" height="128" viewBox="0 0 128 128" fill="none" xmlns="http://www.w3.org/2000/svg">
  <circle cx="64" cy="64" r="60" fill="url(#bg)"/>
  <circle cx="64" cy="64" r="44" fill="white" fill-opacity="0.96"/>
  <g transform="translate(30 30) scale(2.8)" stroke="#5F6FFF" stroke-width="1.9" stroke-linecap="round" stroke-linejoin="round">
    <path d="M11 2v2" />
    <path d="M5 2v2" />
    <path d="M5 3H4a2 2 0 0 0-2 2v4a6 6 0 0 0 12 0V5a2 2 0 0 0-2-2h-1" />
    <path d="M8 15a6 6 0 0 0 12 0v-3" />
    <circle cx="20" cy="10" r="2" />
  </g>
  <defs>
    <linearGradient id="bg" x1="10" y1="10" x2="116" y2="116" gradientUnits="userSpaceOnUse">
      <stop stop-color="#EEF1FF"/>
      <stop offset="1" stop-color="#E3F3FF"/>
    </linearGradient>
  </defs>
</svg>
