<svg width="250" height="50" viewBox="0 0 250 50" fill="none" xmlns="http://www.w3.org/2000/svg">
  <!-- Medical Cross Icon -->
  <g id="medical-icon">
    <path d="M23 0C36.255 0 47 10.745 47 24V40.5C47 42.433 46.233 44.287 44.858 45.662C43.483 47.037 41.629 47.804 39.696 47.804H24V37.2C24 34.748 24.146 32.211 25.416 30.136C26.32 28.658 27.524 27.397 28.947 26.435C30.37 25.473 31.978 24.836 33.667 24.562L34.128 24.487C34.317 24.422 34.481 24.299 34.598 24.136C34.714 23.973 34.777 23.778 34.777 23.578C34.777 23.378 34.714 23.183 34.598 23.02C34.481 22.857 34.317 22.734 34.128 22.669L33.667 22.594C31.175 22.189 28.867 20.999 27.086 19.218C25.305 17.437 24.115 15.129 23.71 12.637L23.635 12.176C23.57 11.987 23.447 11.823 23.284 11.706C23.121 11.59 22.926 11.527 22.726 11.527C22.526 11.527 22.331 11.59 22.168 11.706C22.005 11.823 21.882 11.987 21.817 12.176L21.742 12.637C21.463 14.336 20.826 15.944 19.864 17.367C18.902 18.79 17.641 19.994 16.163 20.898C14.088 22.168 11.551 22.314 9.099 22.314H0.028C0.654 9.954 10.917 0 23 0Z" fill="#5F6FFF"/>
    <path d="M0 25H9.9C12.352 25 14.889 25.146 16.964 26.416C18.551 27.406 19.86 28.715 20.85 30.302C22.12 32.377 22.266 34.914 22.266 37.366V48H7C5.067 48 3.213 47.233 1.838 45.858C0.463 44.483 -0.304 42.629 -0.304 40.696L0 25ZM47 2.5C47 3.163 46.747 3.799 46.299 4.267C45.851 4.735 45.215 4.988 44.552 4.988C43.889 4.988 43.253 4.735 42.805 4.267C42.357 3.799 42.104 3.163 42.104 2.5C42.104 1.837 42.357 1.201 42.805 0.733C43.253 0.265 43.889 0.012 44.552 0.012C45.215 0.012 45.851 0.265 46.299 0.733C46.747 1.201 47 1.837 47 2.5Z" fill="#5F6FFF"/>
  </g>
  
  <!-- Doctor Sahab Text - Single Line -->
  <g id="text">
    <text x="58" y="35" font-family="Arial, sans-serif" font-size="26" font-weight="700" fill="#1a1a2e">Doctor <tspan fill="#5F6FFF">Sahab</tspan></text>
  </g>
</svg>
