<!-- Source icon: Lucide brain (ISC) -->
<svg width="128" height="128" viewBox="0 0 128 128" fill="none" xmlns="http://www.w3.org/2000/svg">
  <circle cx="64" cy="64" r="60" fill="url(#bg)"/>
  <circle cx="64" cy="64" r="44" fill="white" fill-opacity="0.96"/>
  <g transform="translate(30 30) scale(2.8)" stroke="#5A4FCF" stroke-width="1.75" stroke-linecap="round" stroke-linejoin="round">
    <path d="M12 18V5" />
    <path d="M15 13a4.17 4.17 0 0 1-3-4 4.17 4.17 0 0 1-3 4" />
    <path d="M17.598 6.5A3 3 0 1 0 12 5a3 3 0 1 0-5.598 1.5" />
    <path d="M17.997 5.125a4 4 0 0 1 2.526 5.77" />
    <path d="M18 18a4 4 0 0 0 2-7.464" />
    <path d="M19.967 17.483A4 4 0 1 1 12 18a4 4 0 1 1-7.967-.517" />
    <path d="M6 18a4 4 0 0 1-2-7.464" />
    <path d="M6.003 5.125a4 4 0 0 0-2.526 5.77" />
  </g>
  <defs>
    <linearGradient id="bg" x1="10" y1="10" x2="116" y2="116" gradientUnits="userSpaceOnUse">
      <stop stop-color="#F0EBFF"/>
      <stop offset="1" stop-color="#E1F0FF"/>
    </linearGradient>
  </defs>
</svg>
