<!-- Source icon: Lucide baby (ISC) -->
<svg width="128" height="128" viewBox="0 0 128 128" fill="none" xmlns="http://www.w3.org/2000/svg">
  <circle cx="64" cy="64" r="60" fill="url(#bg)"/>
  <circle cx="64" cy="64" r="44" fill="white" fill-opacity="0.96"/>
  <g transform="translate(30 30) scale(2.8)" stroke="#5F6FFF" stroke-width="1.85" stroke-linecap="round" stroke-linejoin="round">
    <path d="M10 16c.5.3 1.2.5 2 .5s1.5-.2 2-.5" />
    <path d="M15 12h.01" />
    <path d="M19.38 6.813A9 9 0 0 1 20.8 10.2a2 2 0 0 1 0 3.6 9 9 0 0 1-17.6 0 2 2 0 0 1 0-3.6A9 9 0 0 1 12 3c2 0 3.5 1.1 3.5 2.5s-.9 2.5-2 2.5c-.8 0-1.5-.4-1.5-1" />
    <path d="M9 12h.01" />
  </g>
  <defs>
    <linearGradient id="bg" x1="10" y1="12" x2="116" y2="116" gradientUnits="userSpaceOnUse">
      <stop stop-color="#FFF3E0"/>
      <stop offset="1" stop-color="#E2F2FF"/>
    </linearGradient>
  </defs>
</svg>
